<?xml version="1.0" encoding="utf-8"?>
<!-- Generator: Adobe Illustrator 19.0.1, SVG Export Plug-In . SVG Version: 6.00 Build 0)  -->
<svg version="1.1" id="Layer_1" xmlns="http://www.w3.org/2000/svg" xmlns:xlink="http://www.w3.org/1999/xlink" x="0px" y="0px"
	 viewBox="254.2 296.9 526.1 214.9" style="enable-background:new 254.2 296.9 526.1 214.9;" xml:space="preserve">
<style type="text/css">
	.st0{fill:#F0B51C;}
	.st1{fill:#FFFFFF;}
	.st2{fill:#555555;}
	.st3{fill:#1C1601;}
</style>
<g>
	<g>
		<path class="st0" d="M465.4,490.8c0,9.6-7.7,17.3-17.3,17.3H275.2c-9.6,0-17.3-7.7-17.3-17.3V317.8c0-9.6,7.7-17.3,17.3-17.3
			h172.9c9.5,0,17.3,7.7,17.3,17.3V490.8z"/>
		<path class="st1" d="M759.4,296.9l-311.3,0c0,0,0,0,0,0h-3.9l-169.1,0c-11.6,0-21,9.4-21,21v0v172.9v0c0,11.6,9.4,21,21,21h172.9
			c0,0,0,0,0,0l311.3,0c11.6,0,21-9.4,21-21V317.8C780.4,306.3,771,296.9,759.4,296.9z M275.2,508.1c-9.6,0-17.3-7.7-17.3-17.3
			V317.8c0-9.6,7.7-17.3,17.3-17.3h172.9c9.5,0,17.3,7.7,17.3,17.3v172.9c0,9.6-7.7,17.3-17.3,17.3L275.2,508.1z M776.7,490.8
			c0,9.6-7.8,17.3-17.3,17.3l-299.5,0c5.5-3.8,9.1-10.1,9.1-17.3V317.8c0-7.2-3.6-13.5-9.1-17.3l299.5,0c9.5,0,17.3,7.7,17.3,17.3
			V490.8z"/>
	</g>
	<g>
		<g>
			<path class="st2" d="M469.1,317.8v172.9c0,7.2-3.6,13.5-9.1,17.3l299.5,0c9.5,0,17.3-7.7,17.3-17.3V317.9
				c0-9.6-7.8-17.3-17.3-17.3l-299.5,0C465.4,304.3,469.1,310.7,469.1,317.8z"/>
		</g>
	</g>
	<g>
		<g>
			<path class="st1" d="M511.5,372.8l6.7,34.8h0.2l7-34.8h9.8l-10.8,47.1h-12.2l-10.8-47.1H511.5z"/>
			<path class="st1" d="M539.7,372.3h9.1v7.8h-9.1V372.3z M539.7,384.4h9.1v35.5h-9.1V384.4z"/>
			<path class="st1" d="M556.2,384.4h8.7v4.7h0.1c1.8-3.4,4.4-5.7,8.2-5.7c0.5,0,1.1,0.1,1.6,0.1v8.7c-0.9-0.1-1.9-0.1-2.8-0.1
				c-3.2,0-6.7,1.6-6.7,6.4v21.3h-9.1V384.4L556.2,384.4z"/>
			<path class="st1" d="M586.9,403.5v2.8c0,4.2,1.1,8.2,4.5,8.2c3,0,4.3-2.3,4.8-6.7h8.2c-0.3,8.2-4.3,12.9-12.9,12.9
				c-13.2,0-13.7-10.1-13.7-19c0-9.5,1.8-18.3,14.1-18.3c10.6,0,13,7.1,13,18v2L586.9,403.5L586.9,403.5z M596.2,398.1
				c-0.2-5.4-0.9-8.4-4.6-8.4c-3.6,0-4.7,3.8-4.7,7v1.4H596.2z"/>
			<path class="st1" d="M610.6,384.4h8.7v3.6h0.1c2.3-3.2,5.1-4.6,9-4.6c4.2,0,7.2,2,8.2,5.7h0.1c1.4-3.8,4.7-5.7,9-5.7
				c6,0,8.8,3.8,8.8,10.6v25.8h-9.1v-24.8c0-3-1-4.6-3.6-4.6c-2.9,0-4.7,2-4.7,6.1v23.3H628v-24.8c0-3-1-4.6-3.6-4.6
				c-2.9,0-4.7,2-4.7,6.1v23.3h-9.1L610.6,384.4L610.6,384.4z"/>
			<path class="st1" d="M669.3,403.5v2.8c0,4.2,1.1,8.2,4.5,8.2c3,0,4.3-2.3,4.8-6.7h8.2c-0.3,8.2-4.3,12.9-12.9,12.9
				c-13.2,0-13.7-10.1-13.7-19c0-9.5,1.8-18.3,14.1-18.3c10.6,0,13,7.1,13,18v2L669.3,403.5L669.3,403.5z M678.6,398.1
				c-0.2-5.4-0.9-8.4-4.6-8.4c-3.6,0-4.7,3.8-4.7,7v1.4H678.6z"/>
			<path class="st1" d="M693,384.4h8.7v4.1h0.1c1.9-3.5,5.2-5.1,9-5.1c5.7,0,9,3.1,9,10.1v26.3h-9.1v-24.5c0-3.6-1.2-4.9-3.9-4.9
				c-3.1,0-4.8,1.9-4.8,5.9v23.5H693L693,384.4L693,384.4z"/>
			<path class="st1" d="M728.9,374.3h9.1v10.2h5.3v6.2H738v19.2c0,2.8,0.6,3.9,3.2,3.9c0.7,0,1.5-0.1,2-0.1v6.3
				c-2,0.2-3.8,0.4-5.9,0.4c-7.1,0-8.4-2.2-8.4-9.4v-20.3h-4.6v-6.2h4.6L728.9,374.3L728.9,374.3z"/>
		</g>
		<path class="st3" d="M288.8,417.1c-2.9-0.3-4.9,0.6-4.9,0.6l0-26.8l9.8-2.3v4.2c0,0,2.7-5.9,9.7-7.5c7.7-1.8,10.2,2.7,10.2,9.2
			l0,26.7l-10.3,2.4l0-25.2c0-3.9-1.8-4.7-4.1-4.2c-2.9,0.7-5,4-5,8.1v17.3C294.2,419.6,292.2,417.4,288.8,417.1z"/>
		<path class="st3" d="M373.9,406.9l0-37.2l9.7-2.3l0,4.9c0,0,2.5-6.4,8.4-7.9c1.8-0.5,2.7-0.2,2.7-0.2v9.5c0,0-2.2-0.1-5.1,1.1
			c-3.6,1.4-5.4,4.5-5.4,9.2v20.5L373.9,406.9L373.9,406.9z"/>
		<path class="st3" d="M322.8,419c0,0-1.6-2.4-1.6-10.7c0-3.4,0-18.5,0-18.5l-5,1.2v-7.6l5-1.2v-8.3l10.3-2.4l0,8.3l7.3-1.7v7.6
			l-7.3,1.7c0,0,0,15.2,0,18.8c0,8.6,2.3,10.2,2.3,10.2L322.8,419L322.8,419z"/>
		<path class="st3" d="M339.9,396.9c0-6.6,0.9-11.4,3-15.1c2.4-4.4,6.3-7.3,12.1-8.6c11.3-2.6,15.4,4.1,15.2,13.1
			c-0.1,3.2,0,4.8,0,4.8l-19.9,4.7v0.3c0,6.3,1.3,9.2,5.3,8.4c3.4-0.7,4.4-2.9,4.7-5.5c0-0.4,0.1-1.5,0.1-1.5l9.3-2.2
			c0,0,0,0.8,0,1.6c-0.1,3.6-1.1,12.4-14.1,15.5C343.1,415.3,339.9,407.7,339.9,396.9z M355.3,380.2c-3.3,0.8-5,4-5.1,9.4l10-2.4
			c0-0.2,0-0.8,0-1.6C360.2,381.5,359,379.3,355.3,380.2z"/>
		<path class="st3" d="M429.5,375.2c-0.4-11.3,2.5-20.3,15.2-23.2c8.1-1.8,11.1,0.3,12.7,2.3c1.5,1.9,2.1,4.5,2.1,8.2v0.7l-9.9,2.3
			c0,0,0-1.3,0-1.4c0-4.3-1.2-6-4.3-5.2c-3.7,0.9-5.2,4.5-5.2,11.5c0,2.5,0,3,0,3.3c0,7.2,1,10.4,5.3,9.5c3.7-0.8,4.2-4.1,4.3-6.9
			c0-0.5,0-1.9,0-1.9l9.9-2.4c0,0,0,0.7,0,1.5c0,9.4-5,15.3-14.3,17.5C432.4,394.2,429.9,386.8,429.5,375.2z"/>
		<path class="st3" d="M395.4,391c0-8.6,5-11.3,12.6-14.5c6.8-2.8,7-4.2,7-6.7c0-2.1-0.9-3.8-4.3-3c-3.1,0.8-4,3-4.1,4.9
			c-0.1,1-0.1,1.9-0.1,1.9l-9.6,2.3c0,0-0.2-3,0.6-5.7c1.5-5.1,6.1-8.6,13.9-10.4c10.2-2.4,13.6,2.1,13.6,9.1c0,0,0,9.4,0,16.5
			c0,8,1.5,9.1,1.5,9.1l-9.4,2.2c0,0-0.9-1.8-1.2-3.4c0,0-2.1,5.2-9.2,6.9C399.3,402,395.4,397.4,395.4,391z M414.9,379.3
			c0,0-2,1.4-5,2.9c-3.1,1.5-4.5,3.4-4.5,6.3c0,2.5,1.6,4.2,4.4,3.5c3-0.8,5.1-3.6,5.1-7.5C414.9,382.2,414.9,380,414.9,379.3
			L414.9,379.3z"/>
		<path class="st3" d="M297.5,433.2l16.5,11.2c2.3,1.5,3.8,4.1,3.8,7.1c0,0.5,0,40.3,0,48.9c-4.1,0-13.6,0-18.7,0
			c-9.9,0-17.9-8-17.9-17.9l0-55.7c0-3.5,2.5-6.4,6.4-6.4c3.8,0,6.4,3,6.4,6.4c0,3.5,0,31.9,0,31.9c0,0.9,0.6,1.7,1.7,1.7
			c1.2,0,1.7-0.8,1.7-2C297.4,457.4,297.5,433.2,297.5,433.2z"/>
		<path class="st3" d="M264.1,436.6c-0.6,0.9-0.9,2-0.9,3.1c0,3.1,2.5,5.7,5.7,5.7c0.4,0,0.8,0,1.2-0.1c0.7-0.1,4.5-1,7.8-1.8v-10.1
			L264.1,436.6z"/>
		<path class="st3" d="M264.1,450.3c-0.6,0.9-0.9,2-0.9,3.1c0,3.1,2.5,5.7,5.7,5.7c0.4,0,0.8,0,1.2-0.1c0.7-0.2,4.5-1,7.8-1.8v-10
			L264.1,450.3z"/>
		<path class="st3" d="M264.1,464.1c-0.6,0.9-0.9,1.9-0.9,3.1c0,3.1,2.5,5.7,5.7,5.7c0.4,0,0.8,0,1.2-0.1c0.7-0.1,4.5-1,7.8-1.8
			v-10.1L264.1,464.1z"/>
		<path class="st3" d="M266.9,432.2v-59.6l10.9-2.6v59.6L266.9,432.2L266.9,432.2z"/>
		<g>
			<path class="st3" d="M437.6,330.1h3.2l2.3,9.6h0l2.3-9.6h3.2v13h-2v-10.8h0L444,343h-1.7l-2.6-10.8h0V343h-2V330.1z"/>
			<path class="st3" d="M450.7,330.1h3.7c4.1,0,4.6,2.7,4.6,6.5c0,3.8-0.5,6.5-4.6,6.5h-3.7V330.1z M452.8,341.5h1.7
				c1.7,0,2.4-1.1,2.4-4.9c0-3.6-0.6-4.9-2.4-4.9h-1.7V341.5z"/>
		</g>
	</g>
</g>
</svg>
